<svg width="150" height="50" viewBox="0 0 150 50" fill="none" xmlns="http://www.w3.org/2000/svg">
<g id="Component 2 1" clip-path="url(#clip0_6243_2841)">
<path id="Vector" d="M142.5 0.625H7.5C3.70304 0.625 0.625 3.70304 0.625 7.5V42.5C0.625 46.297 3.70304 49.375 7.5 49.375H142.5C146.297 49.375 149.375 46.297 149.375 42.5V7.5C149.375 3.70304 146.297 0.625 142.5 0.625Z" fill="black"/>
<path id="Vector_2" d="M142.5 0.625H7.5C3.70304 0.625 0.625 3.70304 0.625 7.5V42.5C0.625 46.297 3.70304 49.375 7.5 49.375H142.5C146.297 49.375 149.375 46.297 149.375 42.5V7.5C149.375 3.70304 146.297 0.625 142.5 0.625Z" stroke="#A6A6A6"/>
<path id="Vector_3" d="M30.8806 25.9539C30.8957 24.804 31.2086 23.6767 31.7901 22.6765C32.3715 21.6764 33.2026 20.836 34.206 20.2338C33.5685 19.345 32.7276 18.6135 31.75 18.0975C30.7722 17.5815 29.6849 17.2952 28.574 17.2613C26.2044 17.0184 23.9072 18.6455 22.6997 18.6455C21.4689 18.6455 19.6097 17.2854 17.6077 17.3255C16.3127 17.3664 15.0507 17.734 13.9446 18.3927C12.8385 19.0513 11.9259 19.9784 11.2959 21.0837C8.5669 25.6967 10.6025 32.4762 13.2167 36.205C14.5246 38.0309 16.0532 40.0705 18.0535 39.9982C20.0107 39.9189 20.7417 38.7797 23.1044 38.7797C25.4451 38.7797 26.131 39.9982 28.1717 39.9522C30.272 39.9189 31.5952 38.1182 32.8574 36.275C33.7971 34.974 34.5202 33.536 35 32.0145C33.7797 31.5107 32.7385 30.6673 32.006 29.5895C31.2734 28.5118 30.882 27.2474 30.8806 25.9539Z" fill="white"/>
<path id="Vector_4" d="M27.026 14.8089C28.1712 13.4668 28.7354 11.7417 28.5988 10C26.8493 10.1794 25.2332 10.9958 24.0725 12.2864C23.505 12.9169 23.0704 13.6504 22.7935 14.445C22.5165 15.2396 22.4028 16.0798 22.4587 16.9173C23.3337 16.926 24.1994 16.7409 24.9905 16.3756C25.7818 16.0105 26.4777 15.4748 27.026 14.8089Z" fill="white"/>
<path id="Vector_5" d="M45.9888 10.6268H48.576C50.8118 10.6268 51.8994 11.9562 51.8994 14.3676C51.8994 16.7791 50.8008 18.125 48.576 18.125H45.9888V10.6268ZM47.2358 11.676V17.0757H48.4388C49.9219 17.0757 50.6195 16.1804 50.6195 14.3841C50.6195 12.5769 49.9164 11.676 48.4388 11.676H47.2358ZM55.8435 12.2198C57.3596 12.2198 58.4198 13.2031 58.4198 14.8346V15.5871C58.4198 17.2735 57.3596 18.2239 55.8435 18.2239C54.3054 18.2239 53.2563 17.2845 53.2563 15.5926V14.8401C53.2563 13.2526 54.3219 12.2198 55.8435 12.2198ZM55.849 13.2031C54.9811 13.2031 54.4868 13.9282 54.4868 14.9005V15.5487C54.4868 16.521 54.9481 17.2406 55.849 17.2406C56.7389 17.2406 57.1949 16.5265 57.1949 15.5487V14.9005C57.1949 13.9282 56.7169 13.2031 55.849 13.2031ZM67.3736 12.3187L65.8465 18.125H64.6051L63.3911 13.8404H63.3581L62.1661 18.125H60.9193L59.3261 12.3187H60.639L61.5729 16.7462H61.6278L62.7979 12.3187H63.9459L65.1489 16.7462H65.2039L66.1541 12.3187H67.3736ZM68.5821 18.125V12.3187H69.7796V13.3624H69.8401C69.9884 12.9065 70.4114 12.2308 71.5869 12.2308C72.757 12.2308 73.5425 12.879 73.5425 14.2029V18.125H72.323V14.5599C72.323 13.6755 71.8616 13.269 71.1749 13.269C70.274 13.269 69.8016 13.9611 69.8016 14.9005V18.125H68.5821ZM75.3881 18.125V10.2313H76.6076V18.125H75.3881ZM80.7935 12.2198C82.3097 12.2198 83.3698 13.2031 83.3698 14.8346V15.5871C83.3698 17.2735 82.3097 18.2239 80.7935 18.2239C79.2554 18.2239 78.2061 17.2845 78.2061 15.5926V14.8401C78.2061 13.2526 79.2719 12.2198 80.7935 12.2198ZM80.799 13.2031C79.931 13.2031 79.4366 13.9282 79.4366 14.9005V15.5487C79.4366 16.521 79.8981 17.2406 80.799 17.2406C81.6889 17.2406 82.1448 16.5265 82.1448 15.5487V14.9005C82.1448 13.9282 81.6669 13.2031 80.799 13.2031ZM86.5284 18.2129C85.4023 18.2129 84.6276 17.5207 84.6276 16.4386C84.6276 15.4114 85.3418 14.7192 86.6821 14.7192H88.1488V14.1754C88.1488 13.5107 87.7259 13.1976 87.0556 13.1976C86.3965 13.1976 86.0999 13.4722 86.0065 13.8567H84.8474C84.9189 12.8845 85.6494 12.2308 87.0941 12.2308C88.3356 12.2308 89.3628 12.7472 89.3628 14.1919V18.125H88.2038V17.3724H88.1488C87.8906 17.8174 87.3853 18.2129 86.5284 18.2129ZM86.9074 17.2681C87.5995 17.2681 88.1488 16.7956 88.1488 16.164V15.5377H86.8744C86.1658 15.5377 85.8526 15.8947 85.8526 16.3781C85.8526 16.9824 86.358 17.2681 86.9074 17.2681ZM93.1201 12.2418C93.9386 12.2418 94.5649 12.6044 94.79 13.1921H94.8505V10.2313H96.07V18.125H94.8834V17.1966H94.823C94.6473 17.7844 93.9496 18.2019 93.1036 18.2019C91.7688 18.2019 90.9009 17.2516 90.9009 15.719V14.7247C90.9009 13.1921 91.7853 12.2418 93.1201 12.2418ZM93.4608 13.2416C92.6478 13.2416 92.1424 13.8459 92.1424 14.9005V15.5377C92.1424 16.5979 92.6533 17.2021 93.4881 17.2021C94.3121 17.2021 94.8505 16.6034 94.8505 15.6146V14.7357C94.8505 13.8404 94.2628 13.2416 93.4608 13.2416ZM102.766 12.2198C104.282 12.2198 105.342 13.2031 105.342 14.8346V15.5871C105.342 17.2735 104.282 18.2239 102.766 18.2239C101.228 18.2239 100.179 17.2845 100.179 15.5926V14.8401C100.179 13.2526 101.245 12.2198 102.766 12.2198ZM102.772 13.2031C101.904 13.2031 101.409 13.9282 101.409 14.9005V15.5487C101.409 16.521 101.871 17.2406 102.772 17.2406C103.662 17.2406 104.117 16.5265 104.117 15.5487V14.9005C104.117 13.9282 103.64 13.2031 102.772 13.2031ZM106.914 18.125V12.3187H108.111V13.3624H108.171C108.32 12.9065 108.743 12.2308 109.918 12.2308C111.088 12.2308 111.874 12.879 111.874 14.2029V18.125H110.654V14.5599C110.654 13.6755 110.193 13.269 109.506 13.269C108.605 13.269 108.133 13.9611 108.133 14.9005V18.125H106.914ZM116.592 12.3572V10.907H117.784V12.3572H119.086V13.313H117.784V16.3946C117.784 17.0264 118.021 17.2021 118.674 17.2021C118.839 17.2021 119.059 17.1911 119.152 17.1801V18.114C119.053 18.1305 118.647 18.1635 118.372 18.1635C116.961 18.1635 116.576 17.6581 116.576 16.4935V13.313H115.692V12.3572H116.592ZM120.624 18.125V10.2313H121.838V13.3624H121.899C122.025 12.9505 122.498 12.2308 123.662 12.2308C124.794 12.2308 125.601 12.8845 125.601 14.2084V18.125H124.387V14.5654C124.387 13.681 123.898 13.269 123.206 13.269C122.333 13.269 121.838 13.9557 121.838 14.9005V18.125H120.624ZM129.694 18.2239C128.111 18.2239 127.129 17.2516 127.129 15.6146V14.8291C127.129 13.1811 128.205 12.2198 129.623 12.2198C131.078 12.2198 132.105 13.2306 132.105 14.8291V15.5102H128.336V15.7959C128.336 16.6309 128.831 17.2461 129.688 17.2461C130.325 17.2461 130.765 16.944 130.848 16.5814H132.039C131.968 17.2516 131.259 18.2239 129.694 18.2239ZM128.336 14.7137H130.913V14.6369C130.913 13.7634 130.403 13.1811 129.628 13.1811C128.854 13.1811 128.336 13.7634 128.336 14.6369V14.7137Z" fill="white"/>
<path id="Vector_6" d="M47.7576 38.1249H45.2197L50.3832 23.1286H53.1739L58.3263 38.1249H55.6897L54.3604 33.9721H49.0979L47.7576 38.1249ZM51.7895 25.7213H51.6906L49.6582 32.0604H53.8L51.7895 25.7213ZM65.3305 38.2897C63.8254 38.2897 62.6827 37.5756 62.0675 36.5099H61.9796V41.9812H59.5406V26.5124H61.9137V28.2153H62.0016C62.6389 27.1057 63.8254 26.3586 65.3854 26.3586C67.9891 26.3586 69.8459 28.3252 69.8459 31.7968V32.8296C69.8459 36.2792 68.0111 38.2897 65.3305 38.2897ZM64.7701 36.2792C66.3192 36.2792 67.3739 35.0378 67.3739 32.6977V31.8847C67.3739 29.6326 66.3851 28.3471 64.7262 28.3471C63.0233 28.3471 61.9576 29.7314 61.9576 31.8737V32.6977C61.9576 34.8949 63.0344 36.2792 64.7701 36.2792ZM77.7287 38.2897C76.2236 38.2897 75.0811 37.5756 74.4659 36.5099H74.378V41.9812H71.939V26.5124H74.312V28.2153H74.4C75.0371 27.1057 76.2236 26.3586 77.7837 26.3586C80.3875 26.3586 82.2442 28.3252 82.2442 31.7968V32.8296C82.2442 36.2792 80.4095 38.2897 77.7287 38.2897ZM77.1685 36.2792C78.7176 36.2792 79.7722 35.0378 79.7722 32.6977V31.8847C79.7722 29.6326 78.7835 28.3471 77.1245 28.3471C75.4216 28.3471 74.356 29.7314 74.356 31.8737V32.6977C74.356 34.8949 75.4326 36.2792 77.1685 36.2792ZM87.2984 33.9611H89.7374C89.8472 35.2576 90.9898 36.3672 93.1102 36.3672C95.0547 36.3672 96.2083 35.4553 96.2083 34.0381C96.2083 32.8954 95.4392 32.2802 93.8352 31.8957L91.3744 31.2804C89.4407 30.8301 87.7049 29.6764 87.7049 27.2374C87.7049 24.3701 90.2099 22.7991 93.1212 22.7991C96.0326 22.7991 98.4605 24.3701 98.5155 27.1716H96.1205C96.0106 25.8972 95.0327 24.8424 93.0882 24.8424C91.3743 24.8424 90.2099 25.6554 90.2099 27.0507C90.2099 28.0286 90.891 28.7317 92.2862 29.0502L94.7361 29.6544C96.9884 30.2038 98.7022 31.2694 98.7022 33.8183C98.7022 36.7627 96.3182 38.4216 92.9234 38.4216C88.7486 38.4216 87.3534 35.9826 87.2984 33.9611ZM101.674 26.5124V23.6889H104.069V26.5124H106.332V28.4679H104.069V34.6642C104.069 35.9277 104.542 36.2792 105.849 36.2792C106.058 36.2792 106.256 36.2792 106.398 36.2573V38.1249C106.201 38.1579 105.739 38.2018 105.245 38.2018C102.421 38.2018 101.641 37.1911 101.641 34.8619V28.4679H100.037V26.5124H101.674ZM112.919 26.3147C116.259 26.3147 118.072 28.6657 118.072 31.8298V32.7636C118.072 36.0376 116.27 38.3227 112.919 38.3227C109.568 38.3227 107.744 36.0376 107.744 32.7636V31.8298C107.744 28.6767 109.579 26.3147 112.919 26.3147ZM112.919 28.2702C111.106 28.2702 110.205 29.7533 110.205 31.8627V32.7526C110.205 34.8291 111.095 36.3562 112.919 36.3562C114.743 36.3562 115.622 34.8401 115.622 32.7526V31.8627C115.622 29.7423 114.732 28.2702 112.919 28.2702ZM120.132 38.1249V26.5124H122.571V28.0394H122.659C122.955 27.3144 123.823 26.3476 125.439 26.3476C125.757 26.3476 126.031 26.3696 126.262 26.4136V28.5668C126.054 28.5119 125.625 28.4789 125.219 28.4789C123.263 28.4789 122.604 29.6874 122.604 31.2474V38.1249H120.132ZM132.179 38.3227C129.07 38.3227 127.092 36.2682 127.092 32.8296V31.6539C127.092 28.4131 129.025 26.3147 132.08 26.3147C135.177 26.3147 137.045 28.4899 137.045 31.7638V32.8734H129.497V33.1482C129.497 35.1037 130.552 36.4001 132.211 36.4001C133.452 36.4001 134.299 35.7848 134.596 34.7851H136.914C136.562 36.6638 135.046 38.3227 132.179 38.3227ZM129.497 31.1706H134.661V31.1486C134.661 29.5007 133.64 28.2043 132.091 28.2043C130.52 28.2043 129.497 29.5007 129.497 31.1486V31.1706Z" fill="white"/>
</g>
<defs>
<clipPath id="clip0_6243_2841">
<rect width="150" height="50" fill="white"/>
</clipPath>
</defs>
</svg>
