<svg width="24" height="24" viewBox="0 0 24 24" fill="none" xmlns="http://www.w3.org/2000/svg">
<g id="heroicons:arrow-path-rounded-square-solid">
<path id="Vector" fill-rule="evenodd" clip-rule="evenodd" d="M12 5.24999C13.2134 5.24999 14.415 5.29499 15.605 5.38499C16.3845 5.44196 17.1174 5.77737 17.67 6.32999C18.2227 6.88261 18.5581 7.61555 18.615 8.39499C18.659 8.97832 18.6924 9.56466 18.715 10.154L17.03 8.46999C16.9614 8.3963 16.8786 8.3372 16.7866 8.29621C16.6946 8.25522 16.5953 8.23318 16.4946 8.2314C16.3939 8.22962 16.2938 8.24815 16.2004 8.28587C16.107 8.32359 16.0222 8.37973 15.951 8.45095C15.8798 8.52217 15.8236 8.60701 15.7859 8.70039C15.7482 8.79378 15.7297 8.89381 15.7314 8.99451C15.7332 9.09522 15.7553 9.19453 15.7963 9.28653C15.8372 9.37853 15.8963 9.46133 15.97 9.52999L18.97 12.53C19.1107 12.6704 19.3013 12.7493 19.5 12.7493C19.6988 12.7493 19.8894 12.6704 20.03 12.53L23.03 9.52999C23.1625 9.38782 23.2346 9.19977 23.2312 9.00547C23.2278 8.81117 23.1491 8.62578 23.0117 8.48837C22.8742 8.35096 22.6889 8.27224 22.4946 8.26882C22.3003 8.26539 22.1122 8.33751 21.97 8.46999L20.218 10.221C20.1947 9.57099 20.1587 8.92466 20.11 8.28199C20.0259 7.14505 19.5361 6.07616 18.73 5.27002C17.9239 4.46388 16.855 3.97414 15.718 3.88999C13.2429 3.70317 10.7572 3.70317 8.28203 3.88999C7.14509 3.97414 6.0762 4.46388 5.27006 5.27002C4.46392 6.07616 3.97418 7.14505 3.89003 8.28199C3.8727 8.50532 3.85736 8.72932 3.84403 8.95399C3.83641 9.05316 3.84859 9.15285 3.87986 9.24726C3.91113 9.34167 3.96087 9.42892 4.02618 9.50393C4.09149 9.57894 4.17106 9.64022 4.26028 9.68418C4.34949 9.72815 4.44655 9.75393 4.54582 9.76004C4.64509 9.76614 4.74458 9.75243 4.83851 9.71972C4.93243 9.68701 5.01891 9.63594 5.09291 9.56949C5.16692 9.50304 5.22696 9.42254 5.26956 9.33266C5.31215 9.24279 5.33645 9.14534 5.34103 9.04599C5.35436 8.82866 5.36903 8.61166 5.38503 8.39499C5.442 7.61555 5.77741 6.88261 6.33003 6.32999C6.88265 5.77737 7.61559 5.44196 8.39503 5.38499C9.58503 5.29499 10.7867 5.24999 12 5.24999ZM5.03003 11.47C4.88941 11.3295 4.69878 11.2507 4.50003 11.2507C4.30128 11.2507 4.11066 11.3295 3.97003 11.47L0.970032 14.47C0.896345 14.5387 0.837242 14.6215 0.796251 14.7135C0.755259 14.8055 0.733217 14.9048 0.73144 15.0055C0.729663 15.1062 0.748188 15.2062 0.785909 15.2996C0.82363 15.393 0.879774 15.4778 0.950993 15.549C1.02221 15.6202 1.10705 15.6764 1.20043 15.7141C1.29382 15.7518 1.39385 15.7704 1.49455 15.7686C1.59526 15.7668 1.69457 15.7448 1.78657 15.7038C1.87857 15.6628 1.96137 15.6037 2.03003 15.53L3.78203 13.779C3.80536 14.429 3.84136 15.0753 3.89003 15.718C3.97418 16.8549 4.46392 17.9238 5.27006 18.73C6.0762 19.5361 7.14509 20.0258 8.28203 20.11C10.7572 20.2968 13.2429 20.2968 15.718 20.11C16.855 20.0258 17.9239 19.5361 18.73 18.73C19.5361 17.9238 20.0259 16.8549 20.11 15.718C20.1267 15.4953 20.142 15.2713 20.156 15.046C20.1651 14.8493 20.0964 14.6569 19.9649 14.5104C19.8333 14.3638 19.6494 14.2749 19.4528 14.2629C19.2563 14.2508 19.0629 14.3165 18.9143 14.4458C18.7658 14.5751 18.6741 14.7576 18.659 14.954C18.6457 15.1707 18.631 15.3877 18.615 15.605C18.5581 16.3844 18.2227 17.1174 17.67 17.67C17.1174 18.2226 16.3845 18.558 15.605 18.615C13.2051 18.7957 10.795 18.7957 8.39503 18.615C7.61559 18.558 6.88265 18.2226 6.33003 17.67C5.77741 17.1174 5.442 16.3844 5.38503 15.605C5.34094 15.0193 5.3076 14.4329 5.28503 13.846L6.97003 15.53C7.11221 15.6625 7.30025 15.7346 7.49455 15.7312C7.68886 15.7277 7.87424 15.649 8.01165 15.5116C8.14907 15.3742 8.22778 15.1888 8.23121 14.9945C8.23463 14.8002 8.16251 14.6122 8.03003 14.47L5.03003 11.47Z" fill="#7F8C8D"/>
</g>
</svg>
