<svg width="25" height="25" viewBox="0 0 25 25" fill="none" xmlns="http://www.w3.org/2000/svg">
<path d="M18.4998 2.77529C16.7748 1.68779 14.7123 1.05029 12.4998 1.05029C10.2873 1.05029 8.22482 1.68779 6.49982 2.77529V21.7878C8.22482 22.8753 10.2873 23.5128 12.4998 23.5128C14.7123 23.5128 16.7748 22.8753 18.4998 21.7878V2.77529Z" fill="#F9F9F9"/>
<path d="M18.4998 2.77527V21.7878C21.6498 19.8378 23.7498 16.2378 23.7498 12.2628C23.7498 8.28777 21.6498 4.76277 18.4998 2.77527ZM6.49982 2.77527C3.34982 4.76277 1.24982 8.36277 1.24982 12.3003C1.24982 16.2378 3.34982 19.8378 6.49982 21.8253V2.77527ZM16.5873 12.1503C16.4373 12.0753 16.3998 11.9253 16.4373 11.8503L16.8123 10.5003L15.4998 10.7628C15.4623 10.7628 15.3123 10.7628 15.2748 10.5003L15.1623 10.0503L14.2623 11.1003C14.2623 11.1003 13.6623 11.7378 13.8498 10.7628L14.2248 8.70027L13.5123 9.07527C13.4748 9.07527 13.3248 9.11277 13.1373 8.73777L12.4998 7.42527L11.8248 8.66277C11.6373 9.03777 11.4873 9.00027 11.4498 9.00027L10.7373 8.62527L11.1123 10.6878C11.2998 11.6628 10.6998 11.0253 10.6998 11.0253L9.79982 9.97527L9.68732 10.4253C9.61232 10.6878 9.49982 10.6878 9.46232 10.6878L8.14982 10.4253L8.52482 11.7753C8.52482 11.8878 8.52482 12.0003 8.37482 12.0753L7.99982 12.3003C7.99982 12.3003 9.49982 13.5003 9.98732 13.9128C10.0998 13.9878 10.3248 14.2128 10.2498 14.4753L10.0623 15.0003L12.1248 14.7003C12.2373 14.7003 12.4623 14.7003 12.4248 15.0378L12.3123 17.1753H12.6873L12.5748 15.0378C12.5748 14.7003 12.7998 14.7003 12.8748 14.7003L14.9373 15.0003L14.7498 14.4753C14.6748 14.2128 14.8998 13.9878 15.0123 13.9128C15.4998 13.5003 16.9998 12.3003 16.9998 12.3003L16.5873 12.1503Z" fill="#ED4C5C"/>
</svg>
