<svg width="24" height="24" viewBox="0 0 24 24" fill="none" xmlns="http://www.w3.org/2000/svg">
<path d="M9.5 2C9.10218 2 8.72064 2.15804 8.43934 2.43934C8.15804 2.72064 8 3.10218 8 3.5V4.5C8 4.89782 8.15804 5.27936 8.43934 5.56066C8.72064 5.84196 9.10218 6 9.5 6H14.5C14.8978 6 15.2794 5.84196 15.5607 5.56066C15.842 5.27936 16 4.89782 16 4.5V3.5C16 3.10218 15.842 2.72064 15.5607 2.43934C15.2794 2.15804 14.8978 2 14.5 2H9.5Z" fill="#16A085"/>
<path fill-rule="evenodd" clip-rule="evenodd" d="M6.5 4.03711C5.242 4.10711 4.448 4.30711 3.879 4.87711C3 5.75611 3 7.17011 3 9.99811V15.9981C3 18.8271 3 20.2411 3.879 21.1201C4.757 21.9981 6.172 21.9981 9 21.9981H15C17.828 21.9981 19.243 21.9981 20.121 21.1201C21 20.2401 21 18.8271 21 15.9981V9.99811C21 7.17011 21 5.75611 20.121 4.87711C19.552 4.30711 18.758 4.10711 17.5 4.03711V4.50011C17.5 5.29576 17.1839 6.05882 16.6213 6.62143C16.0587 7.18404 15.2956 7.50011 14.5 7.50011H9.5C8.70435 7.50011 7.94129 7.18404 7.37868 6.62143C6.81607 6.05882 6.5 5.29576 6.5 4.50011V4.03711ZM7 9.75011C6.80109 9.75011 6.61032 9.82913 6.46967 9.96978C6.32902 10.1104 6.25 10.3012 6.25 10.5001C6.25 10.699 6.32902 10.8898 6.46967 11.0304C6.61032 11.1711 6.80109 11.2501 7 11.2501H7.5C7.69891 11.2501 7.88968 11.1711 8.03033 11.0304C8.17098 10.8898 8.25 10.699 8.25 10.5001C8.25 10.3012 8.17098 10.1104 8.03033 9.96978C7.88968 9.82913 7.69891 9.75011 7.5 9.75011H7ZM10.5 9.75011C10.3011 9.75011 10.1103 9.82913 9.96967 9.96978C9.82902 10.1104 9.75 10.3012 9.75 10.5001C9.75 10.699 9.82902 10.8898 9.96967 11.0304C10.1103 11.1711 10.3011 11.2501 10.5 11.2501H17C17.1989 11.2501 17.3897 11.1711 17.5303 11.0304C17.671 10.8898 17.75 10.699 17.75 10.5001C17.75 10.3012 17.671 10.1104 17.5303 9.96978C17.3897 9.82913 17.1989 9.75011 17 9.75011H10.5ZM7 13.2501C6.80109 13.2501 6.61032 13.3291 6.46967 13.4698C6.32902 13.6104 6.25 13.8012 6.25 14.0001C6.25 14.199 6.32902 14.3898 6.46967 14.5304C6.61032 14.6711 6.80109 14.7501 7 14.7501H7.5C7.69891 14.7501 7.88968 14.6711 8.03033 14.5304C8.17098 14.3898 8.25 14.199 8.25 14.0001C8.25 13.8012 8.17098 13.6104 8.03033 13.4698C7.88968 13.3291 7.69891 13.2501 7.5 13.2501H7ZM10.5 13.2501C10.3011 13.2501 10.1103 13.3291 9.96967 13.4698C9.82902 13.6104 9.75 13.8012 9.75 14.0001C9.75 14.199 9.82902 14.3898 9.96967 14.5304C10.1103 14.6711 10.3011 14.7501 10.5 14.7501H17C17.1989 14.7501 17.3897 14.6711 17.5303 14.5304C17.671 14.3898 17.75 14.199 17.75 14.0001C17.75 13.8012 17.671 13.6104 17.5303 13.4698C17.3897 13.3291 17.1989 13.2501 17 13.2501H10.5ZM7 16.7501C6.80109 16.7501 6.61032 16.8291 6.46967 16.9698C6.32902 17.1104 6.25 17.3012 6.25 17.5001C6.25 17.699 6.32902 17.8898 6.46967 18.0304C6.61032 18.1711 6.80109 18.2501 7 18.2501H7.5C7.69891 18.2501 7.88968 18.1711 8.03033 18.0304C8.17098 17.8898 8.25 17.699 8.25 17.5001C8.25 17.3012 8.17098 17.1104 8.03033 16.9698C7.88968 16.8291 7.69891 16.7501 7.5 16.7501H7ZM10.5 16.7501C10.3011 16.7501 10.1103 16.8291 9.96967 16.9698C9.82902 17.1104 9.75 17.3012 9.75 17.5001C9.75 17.699 9.82902 17.8898 9.96967 18.0304C10.1103 18.1711 10.3011 18.2501 10.5 18.2501H17C17.1989 18.2501 17.3897 18.1711 17.5303 18.0304C17.671 17.8898 17.75 17.699 17.75 17.5001C17.75 17.3012 17.671 17.1104 17.5303 16.9698C17.3897 16.8291 17.1989 16.7501 17 16.7501H10.5Z" fill="#16A085"/>
</svg>
