<svg width="25" height="25" viewBox="0 0 25 25" fill="none" xmlns="http://www.w3.org/2000/svg">
<path d="M4.49982 20.3003H11.4428M11.4428 20.3003H11.5568M11.4428 20.3003C9.5962 20.2853 7.83033 19.5411 6.52988 18.23C5.22942 16.9189 4.49976 15.147 4.49982 13.3003V9.22329C4.49982 8.71329 4.91282 8.30029 5.42282 8.30029H17.5768C18.0868 8.30029 18.4998 8.71329 18.4998 9.22329V9.30029M11.5568 20.3003H18.4998M11.5568 20.3003C13.4034 20.2853 15.1693 19.5411 16.4698 18.23C17.7702 16.9189 18.4999 15.147 18.4998 13.3003M18.4998 9.30029H19.9998C20.6629 9.30029 21.2987 9.56369 21.7676 10.0325C22.2364 10.5014 22.4998 11.1373 22.4998 11.8003C22.4998 12.4633 22.2364 13.0992 21.7676 13.5681C21.2987 14.0369 20.6629 14.3003 19.9998 14.3003H18.4998V13.3003M18.4998 9.30029V13.3003M15.4998 3.30029L14.4998 5.30029M12.4998 3.30029L11.4998 5.30029M9.49982 3.30029L8.49982 5.30029" stroke="white" stroke-width="2" stroke-linecap="round" stroke-linejoin="round"/>
</svg>
