<svg width="20" height="20" viewBox="0 0 20 20" fill="none" xmlns="http://www.w3.org/2000/svg">
<path fill-rule="evenodd" clip-rule="evenodd" d="M10.3649 17.685C10.2445 17.7231 10.1141 17.7141 9.99994 17.66C9.94358 17.6336 9.89357 17.5954 9.85331 17.5479C9.81304 17.5005 9.78347 17.4449 9.76661 17.385L9.36994 15.8567C9.23121 15.3226 9.02981 14.8068 8.76994 14.32C8.36578 13.5642 7.75494 12.9833 7.18828 12.495L5.98994 11.4617C5.89838 11.3825 5.82686 11.2828 5.78124 11.1707C5.73561 11.0586 5.71718 10.9373 5.72744 10.8167L6.40411 2.99C6.42037 2.79974 6.50735 2.62248 6.64789 2.4932C6.78843 2.36392 6.97232 2.29202 7.16328 2.29167H11.0374C13.6508 2.29167 15.8533 4.11 16.2758 6.5525L16.8633 9.9525C16.8823 10.0621 16.8772 10.1745 16.8483 10.2819C16.8194 10.3893 16.7673 10.489 16.6958 10.5742C16.6243 10.6594 16.535 10.7279 16.4343 10.775C16.3335 10.822 16.2237 10.8465 16.1124 10.8467H11.7949C10.9808 10.8467 10.3616 11.5767 10.4933 12.38L11.0458 15.75C11.1208 16.2117 11.0999 16.6833 10.9824 17.1367C10.9489 17.2564 10.8859 17.3657 10.7991 17.4547C10.7123 17.5436 10.6046 17.6094 10.4858 17.6458L10.3649 17.685ZM9.45661 18.7858C9.85969 18.9794 10.3216 19.0113 10.7474 18.875L10.8683 18.8358C11.188 18.7356 11.4772 18.556 11.7087 18.3139C11.9403 18.0717 12.1067 17.7748 12.1924 17.4508C12.3543 16.8295 12.3839 16.181 12.2791 15.5475L11.7266 12.1775C11.7249 12.1676 11.7254 12.1574 11.7281 12.1476C11.7307 12.1379 11.7355 12.1289 11.742 12.1212C11.7485 12.1135 11.7566 12.1073 11.7657 12.1031C11.7749 12.0988 11.7849 12.0966 11.7949 12.0967H16.1116C17.3616 12.0967 18.3083 10.97 18.0949 9.73917L17.5074 6.33917C16.9749 3.26667 14.2249 1.04167 11.0374 1.04167H7.16328C6.11911 1.04167 5.24911 1.84167 5.15911 2.88167L4.48161 10.7092C4.4542 11.027 4.50261 11.3469 4.62285 11.6424C4.74309 11.9379 4.93173 12.2007 5.17328 12.4092L6.37328 13.4425C6.91911 13.9125 7.37828 14.3683 7.66661 14.9092C7.88078 15.3092 8.04661 15.7325 8.15994 16.1708L8.55661 17.6983C8.61844 17.9342 8.731 18.1537 8.88645 18.3415C9.0419 18.5294 9.23649 18.681 9.45661 18.7858ZM2.47328 12.0958C2.63433 12.1029 2.79187 12.0474 2.91299 11.941C3.03412 11.8347 3.10946 11.6856 3.12328 11.525L3.93161 2.16167C3.9453 2.02223 3.93043 1.88147 3.88789 1.74798C3.84536 1.61448 3.77606 1.49106 3.68423 1.38525C3.5924 1.27944 3.47996 1.19346 3.35378 1.13256C3.2276 1.07166 3.09033 1.03712 2.95036 1.03105C2.81039 1.02499 2.67065 1.04751 2.53967 1.09726C2.4087 1.14701 2.28924 1.22294 2.18859 1.32041C2.08795 1.41788 2.00822 1.53484 1.9543 1.66415C1.90037 1.79346 1.87337 1.9324 1.87494 2.0725V11.4717C1.8748 11.6329 1.93697 11.788 2.04847 11.9044C2.15998 12.0209 2.31218 12.089 2.47328 12.0958Z" fill="#7F8C8D"/>
</svg>
