<svg width="15" height="14" viewBox="0 0 15 14" fill="none" xmlns="http://www.w3.org/2000/svg">
<g id="Group">
<path id="Vector" d="M9.25 8.5L8.32525 8.6545C8.30281 8.52017 8.3099 8.38256 8.34604 8.25125C8.38217 8.11994 8.44648 7.99808 8.5345 7.89414C8.62251 7.79021 8.73212 7.7067 8.85568 7.64943C8.97925 7.59215 9.11381 7.56249 9.25 7.5625V8.5ZM1 8.5V9.4375C0.4825 9.4375 0.0625 9.0175 0.0625 8.5H1ZM2.5 0.0625H11.02V1.9375H2.5V0.0625ZM11.92 9.4375H9.25V7.5625H11.92V9.4375ZM10.1747 8.3455L10.7792 11.9725L8.92975 12.2808L8.32525 8.6545L10.1747 8.3455ZM9.115 13.9375H8.9545V12.0625H9.115V13.9375ZM6.3025 12.5185L4.4155 9.688L5.9755 8.64775L7.8625 11.4783L6.3025 12.5185ZM3.9475 9.4375H1V7.5625H3.9475V9.4375ZM0.0625 8.5V2.5H1.9375V8.5H0.0625ZM13.4103 2.02225L14.3102 6.52225L12.472 6.88975L11.572 2.38975L13.4103 2.02225ZM4.4155 9.688C4.36414 9.61095 4.29455 9.54777 4.21291 9.50407C4.13127 9.46037 4.0401 9.43751 3.9475 9.4375V7.5625C4.34874 7.5625 4.74378 7.66156 5.09756 7.85087C5.45133 8.04019 5.7529 8.31391 5.9755 8.64775L4.4155 9.688ZM10.7792 11.9725C10.8196 12.2143 10.8067 12.462 10.7416 12.6983C10.6765 12.9346 10.5607 13.1539 10.4022 13.3409C10.2437 13.5279 10.0464 13.6782 9.824 13.7812C9.60157 13.8842 9.36013 13.9376 9.115 13.9375V12.0625C9.08781 12.0626 9.06022 12.0685 9.03557 12.08C9.01093 12.0915 8.98907 12.1082 8.97152 12.129C8.95397 12.1497 8.94114 12.174 8.93393 12.2003C8.92672 12.2265 8.92529 12.2539 8.92975 12.2808L10.7792 11.9725ZM11.92 7.5625C12.0033 7.56256 12.0855 7.54414 12.1608 7.50857C12.236 7.473 12.3025 7.42116 12.3553 7.3568C12.4081 7.29244 12.4459 7.21716 12.4661 7.1364C12.4863 7.05563 12.4883 6.97139 12.472 6.88975L14.3102 6.52225C14.3809 6.8758 14.3723 7.24063 14.2849 7.59044C14.1976 7.94025 14.0337 8.26633 13.8052 8.54518C13.5766 8.82403 13.2891 9.0487 12.9632 9.203C12.6373 9.3573 12.2813 9.43739 11.9208 9.4375L11.92 7.5625ZM11.02 0.0625C11.5835 0.0624935 12.1297 0.257757 12.5655 0.615061C13.0013 0.972366 13.2998 1.46964 13.4103 2.02225L11.572 2.38975C11.5465 2.26216 11.4775 2.14735 11.3769 2.06489C11.2762 1.98242 11.1501 1.93741 11.02 1.9375V0.0625ZM8.9545 13.9375C8.42981 13.9375 7.91323 13.808 7.4506 13.5605C6.98798 13.3129 6.59361 12.955 6.3025 12.5185L7.8625 11.4783C8.1055 11.8435 8.515 12.0625 8.9545 12.0625V13.9375ZM2.5 1.9375C2.35082 1.9375 2.20774 1.99676 2.10225 2.10225C1.99676 2.20774 1.9375 2.35082 1.9375 2.5H0.0625C0.0625 1.85353 0.319307 1.23355 0.776427 0.776427C1.23355 0.319307 1.85353 0.0625 2.5 0.0625V1.9375Z" fill="#7F8C8D"/>
<path id="Vector_2" d="M4 8.5V1" stroke="#7F8C8D" stroke-width="2.5"/>
</g>
</svg>
