<svg width="15" height="14" viewBox="0 0 15 14" fill="none" xmlns="http://www.w3.org/2000/svg">
<g id="Group">
<path id="Vector" d="M9.25 5.5L8.32525 5.3455C8.30281 5.47983 8.3099 5.61744 8.34604 5.74875C8.38217 5.88006 8.44648 6.00192 8.5345 6.10586C8.62251 6.20979 8.73212 6.2933 8.85568 6.35057C8.97925 6.40785 9.11381 6.43751 9.25 6.4375V5.5ZM1 5.5V4.5625C0.4825 4.5625 0.0625 4.9825 0.0625 5.5H1ZM2.5 13.9375H11.02V12.0625H2.5V13.9375ZM11.92 4.5625H9.25V6.4375H11.92V4.5625ZM10.1747 5.6545L10.7792 2.0275L8.92975 1.71925L8.32525 5.34625L10.1747 5.6545ZM9.115 0.0625001H8.9545V1.9375H9.115V0.0625001ZM6.3025 1.48225L4.4155 4.312L5.9755 5.35225L7.8625 2.52175L6.3025 1.48225ZM3.9475 4.5625H1V6.4375H3.9475V4.5625ZM0.0625 5.5V11.5H1.9375V5.5H0.0625ZM13.4103 11.9777L14.3102 7.47775L12.472 7.11025L11.572 11.6102L13.4103 11.9777ZM4.4155 4.312C4.36414 4.38905 4.29455 4.45223 4.21291 4.49593C4.13127 4.53963 4.0401 4.56249 3.9475 4.5625V6.4375C4.34874 6.4375 4.74378 6.33844 5.09756 6.14913C5.45133 5.95981 5.7529 5.68609 5.9755 5.35225L4.4155 4.312ZM10.7792 2.0275C10.8196 1.78571 10.8067 1.53804 10.7416 1.30172C10.6765 1.06541 10.5607 0.846109 10.4022 0.659092C10.2437 0.472074 10.0464 0.321825 9.824 0.218796C9.60157 0.115767 9.36013 0.0624314 9.115 0.0625001V1.9375C9.08781 1.93743 9.06022 1.93146 9.03557 1.91998C9.01093 1.90851 8.98907 1.89181 8.97152 1.87105C8.95397 1.85029 8.94114 1.82596 8.93393 1.79975C8.92672 1.77353 8.92529 1.74607 8.92975 1.71925L10.7792 2.0275ZM11.92 6.4375C12.0033 6.43744 12.0855 6.45586 12.1608 6.49143C12.236 6.527 12.3025 6.57884 12.3553 6.6432C12.4081 6.70756 12.4459 6.78284 12.4661 6.8636C12.4863 6.94437 12.4883 7.02861 12.472 7.11025L14.3102 7.47775C14.3809 7.1242 14.3723 6.75937 14.2849 6.40956C14.1976 6.05975 14.0337 5.73367 13.8052 5.45482C13.5766 5.17597 13.2891 4.9513 12.9632 4.797C12.6373 4.6427 12.2813 4.56261 11.9208 4.5625L11.92 6.4375ZM11.02 13.9375C11.5835 13.9375 12.1297 13.7422 12.5655 13.3849C13.0013 13.0276 13.2998 12.5304 13.4103 11.9777L11.572 11.6102C11.5465 11.7378 11.4775 11.8527 11.3769 11.9351C11.2762 12.0176 11.1501 12.0626 11.02 12.0625V13.9375ZM8.9545 0.0625001C8.42974 0.0625656 7.91312 0.192187 7.45049 0.439857C6.98785 0.687528 6.59352 1.04559 6.3025 1.48225L7.8625 2.52175C7.98237 2.34201 8.14476 2.19465 8.33526 2.09273C8.52575 1.99081 8.73846 1.93749 8.9545 1.9375V0.0625001ZM2.5 12.0625C2.35082 12.0625 2.20774 12.0032 2.10225 11.8977C1.99676 11.7923 1.9375 11.6492 1.9375 11.5H0.0625C0.0625 12.1465 0.319307 12.7665 0.776427 13.2236C1.23355 13.6807 1.85353 13.9375 2.5 13.9375V12.0625Z" fill="#7F8C8D"/>
<path id="Vector_2" d="M4 5.5V13" stroke="#7F8C8D" stroke-width="2.5"/>
</g>
</svg>
