<svg width="20" height="20" viewBox="0 0 20 20" fill="none" xmlns="http://www.w3.org/2000/svg">
<path fill-rule="evenodd" clip-rule="evenodd" d="M10.3649 2.315C10.2445 2.27692 10.1141 2.28585 9.99994 2.34C9.94358 2.36639 9.89357 2.40462 9.85331 2.45207C9.81304 2.49953 9.78347 2.55509 9.76661 2.615L9.36994 4.14333C9.23121 4.67741 9.02981 5.19322 8.76994 5.68C8.36578 6.43583 7.75494 7.01667 7.18828 7.505L5.98994 8.53833C5.89838 8.61749 5.82686 8.7172 5.78124 8.82931C5.73561 8.94142 5.71718 9.06273 5.72744 9.18333L6.40411 17.0108C6.42057 17.2009 6.50763 17.378 6.64815 17.5071C6.78867 17.6362 6.97245 17.708 7.16328 17.7083H11.0374C13.6508 17.7083 15.8533 15.89 16.2758 13.4475L16.8633 10.0475C16.8823 9.93793 16.8772 9.82552 16.8483 9.71813C16.8194 9.61074 16.7673 9.51097 16.6958 9.4258C16.6243 9.34063 16.535 9.27211 16.4343 9.22505C16.3335 9.17798 16.2237 9.15351 16.1124 9.15333H11.7949C10.9808 9.15333 10.3616 8.42333 10.4933 7.62L11.0458 4.25C11.1222 3.78845 11.1006 3.31599 10.9824 2.86333C10.9489 2.74365 10.8859 2.63429 10.7991 2.54533C10.7123 2.45636 10.6046 2.39062 10.4858 2.35417L10.3649 2.315ZM9.45661 1.21417C9.85969 1.02063 10.3216 0.98872 10.7474 1.125L10.8683 1.16417C11.5158 1.3725 12.0208 1.88917 12.1924 2.54917C12.3533 3.17083 12.3833 3.81917 12.2791 4.4525L11.7266 7.8225C11.7249 7.83244 11.7254 7.84263 11.7281 7.85236C11.7307 7.86209 11.7355 7.87112 11.742 7.87882C11.7485 7.88652 11.7566 7.89271 11.7657 7.89694C11.7749 7.90117 11.7849 7.90336 11.7949 7.90333H16.1116C17.3616 7.90333 18.3083 9.03 18.0949 10.2608L17.5074 13.6608C16.9758 16.7342 14.2258 18.9583 11.0374 18.9583H7.16328C6.65961 18.9579 6.17439 18.7687 5.80336 18.4281C5.43234 18.0875 5.20247 17.6201 5.15911 17.1183L4.48161 9.29083C4.4542 8.97296 4.50261 8.65312 4.62285 8.35759C4.74309 8.06206 4.93173 7.79928 5.17328 7.59083L6.37328 6.5575C6.91911 6.0875 7.37828 5.63167 7.66661 5.09083C7.88091 4.69152 8.04654 4.26794 8.15994 3.82917L8.55661 2.30167C8.61844 2.06582 8.731 1.84631 8.88645 1.65848C9.0419 1.47064 9.23649 1.31901 9.45661 1.21417ZM2.47328 7.90417C2.63433 7.89712 2.79187 7.95258 2.91299 8.05896C3.03412 8.16533 3.10946 8.31439 3.12328 8.475L3.93161 17.8383C3.9453 17.9778 3.93043 18.1185 3.88789 18.252C3.84536 18.3855 3.77606 18.5089 3.68423 18.6147C3.5924 18.7206 3.47996 18.8065 3.35378 18.8674C3.2276 18.9283 3.09033 18.9629 2.95036 18.9689C2.81039 18.975 2.67065 18.9525 2.53967 18.9027C2.4087 18.853 2.28924 18.7771 2.18859 18.6796C2.08795 18.5821 2.00822 18.4652 1.9543 18.3359C1.90037 18.2065 1.87337 18.0676 1.87494 17.9275V8.52833C1.8748 8.36709 1.93697 8.21203 2.04847 8.09556C2.15998 7.97909 2.31218 7.91105 2.47328 7.90417Z" fill="#7F8C8D"/>
</svg>
