<svg width="168" height="57" viewBox="0 0 168 57" fill="none" xmlns="http://www.w3.org/2000/svg">
<mask id="mask0_4823_555" style="mask-type:luminance" maskUnits="userSpaceOnUse" x="6" y="13" width="37" height="33">
<path d="M6.77625 13.8289H42.5493V45.8272H6.77625V13.8289Z" fill="white"/>
</mask>
<g mask="url(#mask0_4823_555)">
<path d="M39.7083 5.45619L39.7079 5.45624C39.0627 5.52257 38.4827 5.83358 38.0724 6.33442L38.072 6.33492C37.6676 6.83286 37.4803 7.45835 37.5436 8.09522L37.5437 8.09545C37.624 8.88968 38.0901 9.55475 38.7364 9.92991L37.6717 13.6722C37.4618 13.6482 37.2469 13.6363 37.0303 13.6363H12.2924C12.1937 13.6363 12.0939 13.6392 11.9961 13.6439L10.9402 9.92971C11.5839 9.55457 12.0498 8.88968 12.1302 8.09569C12.1965 7.45852 12.0091 6.83282 11.6018 6.33484C11.1939 5.83337 10.6108 5.52253 9.96594 5.45624L9.96556 5.4562C8.64113 5.32345 7.44826 6.28844 7.31513 7.60917C7.24875 8.24648 7.43634 8.8693 7.84353 9.36716C8.25122 9.86847 8.8341 10.1793 9.47875 10.2457C9.56215 10.2549 9.64423 10.2579 9.72406 10.2579C9.80344 10.2579 9.87978 10.253 9.95484 10.245L10.9609 13.7936C8.47737 14.3893 6.62625 16.6143 6.62625 19.2628V34.05C6.62625 36.9717 8.89741 39.3728 11.7771 39.6098V45.3939C11.7771 45.6969 11.9568 45.9722 12.236 46.0923L12.2362 46.0924C12.3335 46.1341 12.4357 46.1555 12.5388 46.1555C12.7287 46.1555 12.9155 46.0851 13.0598 45.9513L19.5535 39.9728C19.8118 39.7511 20.1444 39.6284 20.4874 39.6284H37.0303C40.1562 39.6284 42.6993 37.1043 42.6993 33.9991V19.2628C42.6993 16.7308 41.0068 14.586 38.6879 13.8819L39.7217 10.2451C39.7964 10.2531 39.8727 10.2579 39.9498 10.2579C40.0299 10.2579 40.1118 10.2549 40.1976 10.2457C40.8427 10.1793 41.4226 9.86833 41.8328 9.36758L41.8332 9.36708C42.2375 8.86925 42.425 8.24663 42.3616 7.60961L42.3615 7.6091C42.2256 6.28868 41.0358 5.32344 39.7083 5.45619ZM33.9154 24.6375C33.7979 24.6375 33.7001 24.5412 33.7001 24.4194C33.7001 22.5781 32.4802 21.0214 30.9223 21.0214C29.3616 21.0214 28.1416 22.578 28.1416 24.4194C28.1416 24.5404 28.0445 24.6375 27.9235 24.6375C27.806 24.6375 27.7082 24.5412 27.7082 24.4194C27.7082 22.2829 29.1731 20.588 30.9223 20.588C32.6686 20.588 34.1335 22.2828 34.1335 24.4194C34.1335 24.5404 34.0364 24.6375 33.9154 24.6375ZM20.7026 28.3214C20.8244 28.3214 20.9207 28.4192 20.9207 28.5367C20.9207 30.812 22.4301 32.7162 24.3499 32.7162C26.2695 32.7162 27.7818 30.8122 27.7818 28.5367C27.7818 28.4192 27.8782 28.3214 27.9999 28.3214C28.1182 28.3214 28.2152 28.4185 28.2152 28.5367C28.2152 31.1068 26.4584 33.1525 24.3499 33.1525C22.2414 33.1525 20.4845 31.1068 20.4845 28.5367C20.4845 28.4192 20.5808 28.3214 20.7026 28.3214ZM14.7334 24.4194C14.7334 24.5404 14.6364 24.6375 14.5153 24.6375C14.3943 24.6375 14.2972 24.5404 14.2972 24.4194C14.2972 22.2829 15.7621 20.588 17.5113 20.588C19.2605 20.588 20.7254 22.2829 20.7254 24.4194C20.7254 24.5404 20.6283 24.6375 20.5072 24.6375C20.3862 24.6375 20.2891 24.5404 20.2891 24.4194C20.2891 22.5782 19.0721 21.0214 17.5113 21.0214C15.9504 21.0214 14.7334 22.5782 14.7334 24.4194Z" fill="#16A085" stroke="white" stroke-width="0.3"/>
</g>
<path d="M50.0858 38.7663C49.0494 38.7663 48.2537 38.4831 47.6959 37.9168C47.1437 37.3505 46.869 36.5632 46.869 35.5495V17.5738C46.869 16.5402 47.1437 15.7473 47.6959 15.1951C48.2537 14.6373 49.0381 14.3569 50.0519 14.3569C51.0628 14.3569 51.8443 14.6373 52.3965 15.1951C52.9544 15.7473 53.2347 16.5402 53.2347 17.5738V33.4767H61.6732C62.5482 33.4767 63.2193 33.7089 63.6894 34.1676C64.1651 34.6292 64.403 35.2748 64.403 36.1045C64.403 36.9597 64.1651 37.6166 63.6894 38.0754C63.2193 38.537 62.5482 38.7663 61.6732 38.7663H50.0858Z" fill="black"/>
<path d="M69.7134 18.9895C68.6317 18.9895 67.7992 18.7375 67.2102 18.2306C66.6212 17.7266 66.3267 16.9903 66.3267 16.0219C66.3267 15.0789 66.6212 14.354 67.2102 13.8471C67.7992 13.3346 68.6317 13.0769 69.7134 13.0769C71.9929 13.0769 73.1341 14.0595 73.1341 16.0219C73.1341 16.9903 72.8396 17.7266 72.2506 18.2306C71.6673 18.7375 70.8234 18.9895 69.7134 18.9895ZM69.7134 39.0721C68.7223 39.0721 67.9691 38.7832 67.448 38.2112C66.9326 37.6392 66.6778 36.8067 66.6778 35.7193V24.8002C66.6778 23.7213 66.9326 22.8945 67.448 22.3196C67.9691 21.7391 68.7223 21.4475 69.7134 21.4475C70.7102 21.4475 71.4747 21.7391 72.0127 22.3196C72.5564 22.8945 72.8283 23.7213 72.8283 24.8002V35.7193C72.8283 36.8067 72.5621 37.6392 72.0354 38.2112C71.5059 38.7832 70.7328 39.0721 69.7134 39.0721Z" fill="black"/>
<path d="M79.4242 39.072C78.4331 39.072 77.6799 38.8058 77.1588 38.2791C76.6435 37.7524 76.3886 36.9821 76.3886 35.9684V24.5283C76.3886 22.4753 77.3882 21.4474 79.3902 21.4474C81.2082 21.4474 82.2021 22.3365 82.3692 24.1092C82.9412 23.2342 83.7058 22.5631 84.6572 22.093C85.6143 21.6173 86.6847 21.3794 87.8627 21.3794C89.8931 21.3794 91.3967 21.9797 92.3708 23.1804C93.3506 24.3753 93.8433 26.216 93.8433 28.7079V35.9684C93.8433 36.9821 93.5771 37.7524 93.0504 38.2791C92.5209 38.8058 91.7592 39.072 90.7624 39.072C89.7713 39.072 89.0124 38.8058 88.4857 38.2791C87.9562 37.7524 87.6928 36.9821 87.6928 35.9684V28.9457C87.6928 27.9122 87.5116 27.1759 87.1491 26.737C86.7923 26.3009 86.2713 26.08 85.586 26.08C84.6572 26.08 83.9153 26.3745 83.366 26.9635C82.8138 27.5525 82.5391 28.3426 82.5391 29.3309V35.9684C82.5391 38.0384 81.4999 39.072 79.4242 39.072Z" fill="black"/>
<path d="M105.758 45.3697C103.159 45.3697 101.018 45.0327 99.3357 44.3616C98.5032 44.0671 97.968 43.6282 97.7273 43.0477C97.4838 42.4728 97.4554 41.8923 97.6367 41.3033C97.8236 40.7143 98.152 40.2641 98.6221 39.9554C99.0978 39.644 99.6557 39.6071 100.298 39.8422C101.309 40.2556 102.224 40.5246 103.04 40.6464C103.861 40.7738 104.574 40.8389 105.18 40.8389C106.585 40.8389 107.638 40.5444 108.341 39.9554C109.043 39.3664 109.394 38.4546 109.394 37.2143V35.6173C108.91 36.4498 108.182 37.1067 107.208 37.5881C106.239 38.0724 105.206 38.3131 104.104 38.3131C102.578 38.3131 101.25 37.9619 100.117 37.2597C98.9902 36.5574 98.1124 35.572 97.4781 34.3033C96.8495 33.0347 96.538 31.5509 96.538 29.8519C96.538 28.1472 96.8495 26.6577 97.4781 25.3891C98.1124 24.1205 98.9902 23.1351 100.117 22.4328C101.25 21.7305 102.578 21.3794 104.104 21.3794C105.228 21.3794 106.271 21.6173 107.231 22.093C108.188 22.5631 108.887 23.2002 109.326 24.0072C109.53 22.3025 110.541 21.4474 112.362 21.4474C114.369 21.4474 115.375 22.4753 115.375 24.5283V36.4894C115.375 39.4571 114.542 41.6771 112.883 43.1496C111.22 44.6278 108.845 45.3697 105.758 45.3697ZM106.007 33.7936C107.018 33.7936 107.822 33.4482 108.42 32.7516C109.023 32.0578 109.326 31.0922 109.326 29.8519C109.326 28.6059 109.023 27.6403 108.42 26.9522C107.822 26.2584 107.018 25.9101 106.007 25.9101C105.016 25.9101 104.22 26.2584 103.617 26.9522C103.02 27.6403 102.722 28.6059 102.722 29.8519C102.722 31.0922 103.02 32.0578 103.617 32.7516C104.22 33.4482 105.016 33.7936 106.007 33.7936Z" fill="black"/>
<path d="M130.167 39.1513C126.616 39.1513 123.903 38.2537 122.023 36.4555C120.142 34.6517 119.202 31.9644 119.202 28.3908V17.3018C119.202 16.2597 119.477 15.464 120.029 14.9118C120.587 14.3625 121.371 14.085 122.385 14.085C123.396 14.085 124.178 14.3625 124.73 14.9118C125.288 15.464 125.568 16.2597 125.568 17.3018V28.4701C125.568 30.2456 125.956 31.5821 126.735 32.4798C127.519 33.3803 128.663 33.8277 130.167 33.8277C131.639 33.8277 132.763 33.3803 133.542 32.4798C134.326 31.5821 134.72 30.2456 134.72 28.4701V17.3018C134.72 16.2597 134.992 15.464 135.536 14.9118C136.079 14.3625 136.855 14.085 137.869 14.085C138.88 14.085 139.65 14.3625 140.18 14.9118C140.715 15.464 140.984 16.2597 140.984 17.3018V28.3908C140.984 31.9644 140.066 34.6517 138.231 36.4555C136.402 38.2537 133.715 39.1513 130.167 39.1513Z" fill="black"/>
<path d="M147.849 45.3017C145.825 45.3017 144.814 44.2625 144.814 42.1868V24.5283C144.814 22.4753 145.813 21.4474 147.815 21.4474C149.633 21.4474 150.639 22.3025 150.828 24.0072C151.287 23.2002 151.984 22.5631 152.912 22.093C153.847 21.6173 154.883 21.3794 156.016 21.3794C157.466 21.3794 158.749 21.739 159.867 22.4554C160.983 23.1662 161.861 24.1856 162.495 25.5137C163.129 26.8361 163.446 28.419 163.446 30.2597C163.446 32.0804 163.132 33.6577 162.506 34.9943C161.886 36.3309 161.017 37.3588 159.901 38.0752C158.783 38.7916 157.489 39.1512 156.016 39.1512C154.951 39.1512 153.96 38.9304 153.048 38.4943C152.142 38.0582 151.446 37.4692 150.964 36.7273V42.1868C150.964 43.1978 150.692 43.968 150.149 44.4975C149.611 45.0327 148.846 45.3017 147.849 45.3017ZM154.079 34.6205C154.999 34.6205 155.758 34.2779 156.356 33.5898C156.951 32.896 157.251 31.7859 157.251 30.2597C157.251 28.7192 156.951 27.6092 156.356 26.9296C155.758 26.2499 154.999 25.9101 154.079 25.9101C153.133 25.9101 152.36 26.2499 151.757 26.9296C151.16 27.6092 150.862 28.7192 150.862 30.2597C150.862 31.7859 151.16 32.896 151.757 33.5898C152.36 34.2779 153.133 34.6205 154.079 34.6205Z" fill="black"/>
</svg>
