<svg width="20" height="18" viewBox="0 0 20 18" fill="none" xmlns="http://www.w3.org/2000/svg">
<path d="M10.1027 0.00843057H16.659C16.9473 0.00843057 17.2553 2.06225e-10 17.5197 2.06223e-10C17.7337 -2.52487e-06 17.8037 0.0231833 17.9457 0.0737668C19.296 0.547987 20.0082 1.92428 19.9955 3.09402C19.9701 5.82342 19.9573 8.55282 19.9997 11.2801C20.0188 12.6016 18.9823 14.3004 16.9982 14.3488C15.1858 14.3931 13.3735 14.3615 11.559 14.3615C10.3316 14.3615 9.10219 14.3699 7.87486 14.3573C7.50391 14.3531 7.20715 14.4669 6.93794 14.7177C5.82508 15.7525 4.6995 16.7768 3.5824 17.8075C3.43826 17.9424 3.292 18.052 3.0885 17.974C2.86381 17.8876 2.89137 17.6852 2.89137 17.4998C2.89137 16.5218 2.88925 15.546 2.89349 14.568C2.89349 14.4205 2.87017 14.3552 2.69423 14.3341C1.17226 14.1528 0.0233664 12.9156 0.0127677 11.3918C-0.0063099 8.56968 -0.00207043 5.74754 0.0127677 2.92752C0.0191269 1.6545 0.968768 0.491081 2.21941 0.10749C2.53525 0.0105381 2.84261 0.00632288 3.16057 0.00632288C5.4732 0.00632288 7.78583 0.00632288 10.0985 0.00632288L10.1027 0.00843057ZM9.88437 10.9218C9.95432 10.9134 10.0667 10.9092 10.1727 10.886C11.205 10.6415 11.7391 9.927 11.9999 8.95959C12.0592 8.73829 12.0783 8.51066 12.0804 8.28515C12.0804 8.1629 12.0211 8.06595 11.8896 8.05541C11.7582 8.04488 11.6904 8.1355 11.6692 8.25353C11.6565 8.31887 11.6586 8.38842 11.6543 8.45587C11.6374 8.81417 11.5441 9.1556 11.3724 9.46964C11.0417 10.0766 10.5606 10.4961 9.83138 10.4961C9.09159 10.4961 8.61041 10.0703 8.28185 9.44857C8.09743 9.10081 8.02112 8.72143 8.00416 8.33152C7.99781 8.18398 7.95753 8.04488 7.77947 8.05963C7.60778 8.07438 7.58022 8.21349 7.58658 8.36102C7.62473 9.10081 7.86002 9.76471 8.39208 10.2979C8.78635 10.6942 9.26965 10.9197 9.88225 10.926L9.88437 10.9218ZM13.4031 4.13941C13.8122 4.13941 14.0878 4.24058 14.3273 4.45134C14.764 4.83283 14.9357 5.32602 14.9675 5.88454C14.976 6.02786 15.0205 6.16907 15.2007 6.1501C15.3766 6.13324 15.3957 5.99203 15.3851 5.8466C15.3596 5.51781 15.2982 5.19745 15.1625 4.89395C14.8085 4.10147 14.0793 3.6399 13.3268 3.73264C12.3857 3.84645 11.6268 4.79489 11.631 5.85082C11.631 5.99203 11.6395 6.14167 11.8218 6.1501C12.0168 6.15854 12.0465 6.00678 12.0465 5.85293C12.0465 5.5431 12.1207 5.25014 12.267 4.98036C12.5298 4.4935 12.905 4.15627 13.4052 4.13941H13.4031ZM6.05401 3.73474C5.42657 3.73053 4.99202 3.96026 4.65287 4.39865C4.31583 4.83494 4.14413 5.32391 4.12929 5.86979C4.12505 6.00046 4.14413 6.14589 4.31159 6.148C4.46633 6.148 4.53204 6.05526 4.53628 5.88454C4.54688 5.45669 4.68678 5.06678 4.93479 4.71058C5.41809 4.02138 6.36349 3.92654 6.98881 4.62839C7.32797 5.00987 7.417 5.45669 7.47635 5.9288C7.49331 6.06369 7.53994 6.16697 7.68832 6.1501C7.81551 6.13535 7.89394 6.05948 7.8897 5.91194C7.88334 5.68432 7.84095 5.46301 7.78159 5.24803C7.56114 4.4387 6.86163 3.68838 6.05401 3.73896V3.73474Z" fill="#16A085"/>
</svg>
