<svg width="24" height="24" viewBox="0 0 24 24" fill="none" xmlns="http://www.w3.org/2000/svg">
<path d="M16.6746 4C17.4066 4 18 4.59341 18 5.32541V18.2694C18 19.2252 17.2252 20 16.2694 20C15.6775 20 15.1267 19.6975 14.8091 19.198L11.5 13.9937L8.04974 8.5674C7.94236 8.39852 7.68097 8.47458 7.68097 8.67471V18.6595C7.68097 19.3998 7.08081 20 6.34048 20C5.60015 20 5 19.3998 5 18.6595V5.73106C5 4.77502 5.77502 4 6.73106 4C7.32272 4 7.8734 4.30218 8.1912 4.80125L14.9805 15.4629C15.0879 15.6317 15.3492 15.5556 15.3492 15.3555V5.32541C15.3492 4.59341 15.9426 4 16.6746 4Z" fill="#16A085"/>
</svg>
