<svg width="150" height="50" viewBox="0 0 150 50" fill="none" xmlns="http://www.w3.org/2000/svg">
<g id="Store download button 1" clip-path="url(#clip0_6243_2832)">
<path id="Vector" d="M142.5 0.625H7.5C3.70304 0.625 0.625 3.70304 0.625 7.5V42.5C0.625 46.297 3.70304 49.375 7.5 49.375H142.5C146.297 49.375 149.375 46.297 149.375 42.5V7.5C149.375 3.70304 146.297 0.625 142.5 0.625Z" fill="black"/>
<path id="Vector_2" d="M142.5 0.625H7.5C3.70304 0.625 0.625 3.70304 0.625 7.5V42.5C0.625 46.297 3.70304 49.375 7.5 49.375H142.5C146.297 49.375 149.375 46.297 149.375 42.5V7.5C149.375 3.70304 146.297 0.625 142.5 0.625Z" stroke="#A6A6A6"/>
<path id="Vector_3" d="M22.2561 24.3271L10.1121 37.5074C10.1132 37.5098 10.1132 37.5133 10.1143 37.5156C10.4873 38.9468 11.7648 40 13.2818 40C13.8886 40 14.4578 39.832 14.9459 39.5381L14.9847 39.5148L28.6537 31.4491L22.2561 24.3271Z" fill="#EA4335"/>
<path id="Vector_4" d="M34.5415 22.0828L34.5301 22.0747L28.6286 18.5765L21.98 24.6267L28.6526 31.4478L34.5221 27.9848C35.551 27.4155 36.2501 26.3063 36.2501 25.0279C36.2501 23.7565 35.5612 22.6532 34.5415 22.0828Z" fill="#FBBC04"/>
<path id="Vector_5" d="M10.1118 12.4917C10.0388 12.767 10 13.0562 10 13.3549V36.6455C10 36.9441 10.0388 37.2334 10.1129 37.5075L22.6732 24.6642L10.1118 12.4917Z" fill="#4285F4"/>
<path id="Vector_6" d="M22.3457 24.9999L28.6305 18.5742L14.9775 10.4794C14.4812 10.175 13.9018 10 13.2825 10C11.7655 10 10.4857 11.0556 10.1127 12.4879L10.1116 12.4914L22.3457 24.9999Z" fill="#34A853"/>
<path id="Vector_7" d="M54.5124 14.6375C54.5124 15.8875 54.1415 16.8834 53.3999 17.625C52.5665 18.5084 51.4708 18.95 50.1124 18.95C48.8124 18.95 47.7124 18.5 46.8124 17.6C45.9124 16.7 45.4624 15.5916 45.4624 14.275C45.4624 12.9584 45.9124 11.85 46.8124 10.95C47.7124 10.05 48.8124 9.59998 50.1124 9.59998C50.7708 9.59998 51.3915 9.71664 51.9749 9.94998C52.5583 10.1833 53.0374 10.5125 53.4124 10.9375L52.5874 11.7625C52.3124 11.4291 51.954 11.1708 51.5124 10.9875C51.079 10.7958 50.6124 10.7 50.1124 10.7C49.1374 10.7 48.3124 11.0375 47.6374 11.7125C46.9708 12.3958 46.6374 13.25 46.6374 14.275C46.6374 15.3 46.9708 16.1541 47.6374 16.8375C48.3124 17.5125 49.1374 17.85 50.1124 17.85C51.004 17.85 51.7458 17.6 52.3374 17.1C52.929 16.6 53.2708 15.9125 53.3624 15.0375H50.1124V13.9625H54.4499C54.4915 14.1959 54.5124 14.4209 54.5124 14.6375ZM61.1347 9.79998V10.9H57.0597V13.7375H60.7347V14.8125H57.0597V17.65H61.1347V18.75H55.9097V9.79998H61.1347ZM65.7345 10.9V18.75H64.5845V10.9H62.0845V9.79998H68.2345V10.9H65.7345ZM73.3317 18.75H72.1817V9.79998H73.3317V18.75ZM78.1858 10.9V18.75H77.0358V10.9H74.5358V9.79998H80.6858V10.9H78.1858ZM93.1512 14.275C93.1512 15.6 92.7095 16.7084 91.8262 17.6C90.9345 18.5 89.8428 18.95 88.5512 18.95C87.2512 18.95 86.1595 18.5 85.2762 17.6C84.3928 16.7084 83.9512 15.6 83.9512 14.275C83.9512 12.95 84.3928 11.8416 85.2762 10.95C86.1595 10.05 87.2512 9.59998 88.5512 9.59998C89.8512 9.59998 90.9428 10.0541 91.8262 10.9625C92.7095 11.8541 93.1512 12.9584 93.1512 14.275ZM85.1262 14.275C85.1262 15.3084 85.4511 16.1625 86.1012 16.8375C86.7595 17.5125 87.5762 17.85 88.5512 17.85C89.5262 17.85 90.3387 17.5125 90.9887 16.8375C91.647 16.1709 91.9762 15.3166 91.9762 14.275C91.9762 13.2334 91.647 12.3791 90.9887 11.7125C90.3387 11.0375 89.5262 10.7 88.5512 10.7C87.5762 10.7 86.7595 11.0375 86.1012 11.7125C85.4511 12.3875 85.1262 13.2416 85.1262 14.275ZM95.6583 18.75H94.5083V9.79998H95.9083L100.258 16.7625H100.308L100.258 15.0375V9.79998H101.408V18.75H100.208L95.6583 11.45H95.6083L95.6583 13.175V18.75Z" fill="white"/>
<path id="Vector_8" d="M116.898 39.2621H118.934V25.4976H116.898V39.2621ZM135.236 30.4557L132.902 36.4235H132.832L130.41 30.4557H128.216L131.849 38.7964L129.779 43.4363H131.901L137.5 30.4557H135.236ZM123.69 37.6985C123.022 37.6985 122.092 37.3628 122.092 36.5293C122.092 35.4678 123.25 35.0604 124.251 35.0604C125.145 35.0604 125.567 35.2552 126.111 35.5206C125.952 36.7956 124.865 37.6985 123.69 37.6985ZM123.935 30.1551C122.461 30.1551 120.934 30.8103 120.303 32.2626L122.11 33.0235C122.496 32.2626 123.215 32.0138 123.97 32.0138C125.024 32.0138 126.094 32.6512 126.111 33.7854V33.9264C125.743 33.7137 124.953 33.3956 123.988 33.3956C122.04 33.3956 120.056 34.4757 120.056 36.494C120.056 38.3361 121.654 39.523 123.443 39.523C124.813 39.523 125.567 38.9031 126.041 38.1764H126.111V39.239H128.076V33.9615C128.076 31.5183 126.269 30.1551 123.935 30.1551ZM111.353 32.1316H108.457V27.4135H111.353C112.875 27.4135 113.739 28.6853 113.739 29.772C113.739 30.8389 112.875 32.1316 111.353 32.1316ZM111.3 25.4976H106.422V39.2621H108.457V34.0474H111.3C113.557 34.0474 115.775 32.398 115.775 29.772C115.775 27.146 113.557 25.4976 111.3 25.4976ZM84.6979 37.7008C83.2915 37.7008 82.1141 36.5127 82.1141 34.8809C82.1141 33.2315 83.2915 32.0248 84.6979 32.0248C86.0869 32.0248 87.1758 33.2315 87.1758 34.8809C87.1758 36.5127 86.0869 37.7008 84.6979 37.7008ZM87.0361 31.2265H86.9652C86.508 30.6771 85.6297 30.1805 84.5222 30.1805C82.2014 30.1805 80.0749 32.2372 80.0749 34.8809C80.0749 37.5059 82.2014 39.5461 84.5222 39.5461C85.6297 39.5461 86.508 39.0495 86.9652 38.4814H87.0361V39.1564C87.0361 40.9478 86.0869 41.9058 84.5571 41.9058C83.3089 41.9058 82.5353 41.0006 82.2189 40.2376L80.4436 40.983C80.9532 42.225 82.3072 43.75 84.5571 43.75C86.9478 43.75 88.9696 42.3307 88.9696 38.8722V30.4635H87.0361V31.2265ZM90.376 39.2621H92.4152V25.4966H90.376V39.2621ZM95.4202 34.7213C95.3679 32.9123 96.8093 31.9895 97.8458 31.9895C98.6554 31.9895 99.3406 32.397 99.5686 32.9827L95.4202 34.7213ZM101.749 33.16C101.362 32.114 100.184 30.1805 97.776 30.1805C95.3854 30.1805 93.3995 32.0776 93.3995 34.8634C93.3995 37.4882 95.3679 39.5461 98.004 39.5461C100.132 39.5461 101.362 38.2336 101.872 37.4706L100.29 36.4059C99.7629 37.1866 99.0416 37.7008 98.004 37.7008C96.9674 37.7008 96.2288 37.2218 95.7541 36.2826L101.959 33.6917L101.749 33.16ZM52.3126 31.6174V33.6037H57.023C56.8823 34.7212 56.5134 35.5371 55.9515 36.1042C55.2651 36.7968 54.1926 37.5599 52.3126 37.5599C49.4114 37.5599 47.144 35.2002 47.144 32.2736C47.144 29.3459 49.4114 26.9874 52.3126 26.9874C53.8773 26.9874 55.0196 27.6084 55.8631 28.4068L57.2521 27.005C56.0736 25.8699 54.5101 25 52.3126 25C48.3399 25 45 28.2646 45 32.2736C45 36.2826 48.3399 39.5461 52.3126 39.5461C54.4566 39.5461 56.0736 38.836 57.3394 37.5059C58.6411 36.1934 59.0448 34.3491 59.0448 32.8583C59.0448 32.397 59.0099 31.9719 58.939 31.6174H52.3126ZM64.401 37.7008C62.9946 37.7008 61.7812 36.5304 61.7812 34.8634C61.7812 33.1776 62.9946 32.0248 64.401 32.0248C65.8064 32.0248 67.0197 33.1776 67.0197 34.8634C67.0197 36.5304 65.8064 37.7008 64.401 37.7008ZM64.401 30.1805C61.8336 30.1805 59.742 32.1492 59.742 34.8634C59.742 37.5599 61.8336 39.5461 64.401 39.5461C66.9674 39.5461 69.059 37.5599 69.059 34.8634C69.059 32.1492 66.9674 30.1805 64.401 30.1805ZM74.5625 37.7008C73.1561 37.7008 71.9427 36.5304 71.9427 34.8634C71.9427 33.1776 73.1561 32.0248 74.5625 32.0248C75.969 32.0248 77.1812 33.1776 77.1812 34.8634C77.1812 36.5304 75.969 37.7008 74.5625 37.7008ZM74.5625 30.1805C71.9963 30.1805 69.9046 32.1492 69.9046 34.8634C69.9046 37.5599 71.9963 39.5461 74.5625 39.5461C77.1289 39.5461 79.2205 37.5599 79.2205 34.8634C79.2205 32.1492 77.1289 30.1805 74.5625 30.1805Z" fill="white"/>
</g>
<defs>
<clipPath id="clip0_6243_2832">
<rect width="150" height="50" fill="white"/>
</clipPath>
</defs>
</svg>
