<svg width="22" height="18" viewBox="0 0 22 18" fill="none" xmlns="http://www.w3.org/2000/svg">
<g id="Group">
<path id="Vector" d="M11.6001 1.49989C11.6 1.32423 11.5486 1.15242 11.4521 1.00565C11.3556 0.858869 11.2182 0.743543 11.0569 0.673885C10.8957 0.604227 10.7176 0.583283 10.5445 0.613634C10.3715 0.643985 10.2112 0.724305 10.0833 0.844692L5.24365 5.39989H2.20045C2.01864 5.39982 1.84108 5.45482 1.69113 5.55764C1.54119 5.66045 1.4259 5.80627 1.36045 5.97589C0.989142 6.94081 0.799158 7.96599 0.800052 8.99989C0.800052 10.0643 0.998052 11.0843 1.36165 12.0239C1.49485 12.3719 1.82965 12.5999 2.20165 12.5999H5.24365L10.0833 17.1551C10.2112 17.2755 10.3715 17.3558 10.5445 17.3862C10.7176 17.4165 10.8957 17.3956 11.0569 17.3259C11.2182 17.2562 11.3556 17.1409 11.4521 16.9941C11.5486 16.8474 11.6 16.6756 11.6001 16.4999V1.49989ZM18.7401 3.05989C18.5702 2.89603 18.3428 2.80542 18.1069 2.80758C17.8709 2.80974 17.6452 2.9045 17.4784 3.07145C17.3116 3.23839 17.2171 3.46417 17.2151 3.70015C17.2132 3.93613 17.304 4.16343 17.4681 4.33309C18.7057 5.57082 19.401 7.24951 19.401 8.99989C19.401 10.7503 18.7057 12.429 17.4681 13.6667C17.3091 13.8373 17.2225 14.063 17.2266 14.2961C17.2308 14.5293 17.3252 14.7517 17.4901 14.9166C17.655 15.0815 17.8775 15.176 18.1106 15.1801C18.3438 15.1842 18.5694 15.0977 18.7401 14.9387C20.3152 13.3634 21.2001 11.227 21.2001 8.99929C21.2001 6.77162 20.3152 4.63517 18.7401 3.05989Z" fill="#7F8C8D"/>
<path id="Vector_2" d="M16.1949 5.60621C16.0252 5.44219 15.7979 5.35136 15.5619 5.3533C15.3259 5.35524 15.1002 5.44979 14.9332 5.61658C14.7663 5.78336 14.6715 6.00905 14.6693 6.24503C14.6672 6.48101 14.7578 6.70839 14.9217 6.87821C15.2003 7.1568 15.4214 7.48755 15.5722 7.85158C15.723 8.21561 15.8006 8.60578 15.8006 8.99981C15.8006 9.39384 15.723 9.78402 15.5722 10.148C15.4214 10.5121 15.2003 10.8428 14.9217 11.1214C14.7627 11.292 14.6761 11.5177 14.6803 11.7508C14.6844 11.984 14.7788 12.2065 14.9437 12.3714C15.1086 12.5363 15.3311 12.6307 15.5642 12.6348C15.7974 12.6389 16.0231 12.5524 16.1937 12.3934C17.0935 11.4933 17.599 10.2726 17.599 8.99981C17.599 7.72702 17.0935 6.50634 16.1937 5.60621" fill="#7F8C8D"/>
</g>
</svg>
