<svg width="25" height="25" viewBox="0 0 25 25" fill="none" xmlns="http://www.w3.org/2000/svg">
<path d="M12.4998 21.3003L11.0498 20.0003C9.36648 18.4837 7.97482 17.1753 6.87482 16.0753C5.77482 14.9753 4.89982 13.9877 4.24982 13.1123C3.59982 12.237 3.14582 11.433 2.88782 10.7003C2.62982 9.96765 2.50048 9.21765 2.49982 8.45032C2.49982 6.88365 3.02482 5.57532 4.07482 4.52532C5.12482 3.47532 6.43315 2.95032 7.99982 2.95032C8.86648 2.95032 9.69148 3.13365 10.4748 3.50032C11.2582 3.86698 11.9332 4.38365 12.4998 5.05032C13.0665 4.38365 13.7415 3.86698 14.5248 3.50032C15.3082 3.13365 16.1332 2.95032 16.9998 2.95032C18.5665 2.95032 19.8748 3.47532 20.9248 4.52532C21.9748 5.57532 22.4998 6.88365 22.4998 8.45032C22.4998 9.21698 22.3708 9.96698 22.1128 10.7003C21.8548 11.4337 21.4005 12.2377 20.7498 13.1123C20.0991 13.987 19.2241 14.9747 18.1248 16.0753C17.0255 17.176 15.6338 18.4843 13.9498 20.0003L12.4998 21.3003Z" fill="#FF6B6B"/>
</svg>
