<svg width="18" height="18" viewBox="0 0 18 18" fill="none" xmlns="http://www.w3.org/2000/svg">
<path id="Vector" d="M12 9.17719L13.4119 12H10.5881L11.1844 10.8094L12 9.17719ZM18 1.5V16.5C18 16.8978 17.842 17.2794 17.5607 17.5607C17.2794 17.842 16.8978 18 16.5 18H1.5C1.10218 18 0.720644 17.842 0.43934 17.5607C0.158035 17.2794 0 16.8978 0 16.5V1.5C0 1.10218 0.158035 0.720644 0.43934 0.43934C0.720644 0.158035 1.10218 0 1.5 0H16.5C16.8978 0 17.2794 0.158035 17.5607 0.43934C17.842 0.720644 18 1.10218 18 1.5ZM16.4212 14.6644L12.6713 7.16437C12.609 7.03957 12.5133 6.93458 12.3947 6.86119C12.2761 6.7878 12.1394 6.74892 12 6.74892C11.8606 6.74892 11.7239 6.7878 11.6053 6.86119C11.4867 6.93458 11.391 7.03957 11.3287 7.16437L10.0931 9.6375C9.29829 9.48185 8.54452 9.16259 7.87969 8.7C8.91599 7.52687 9.55717 6.05757 9.7125 4.5H11.25C11.4489 4.5 11.6397 4.42098 11.7803 4.28033C11.921 4.13968 12 3.94891 12 3.75C12 3.55109 11.921 3.36032 11.7803 3.21967C11.6397 3.07902 11.4489 3 11.25 3H7.5V2.25C7.5 2.05109 7.42098 1.86032 7.28033 1.71967C7.13968 1.57902 6.94891 1.5 6.75 1.5C6.55109 1.5 6.36032 1.57902 6.21967 1.71967C6.07902 1.86032 6 2.05109 6 2.25V3H2.25C2.05109 3 1.86032 3.07902 1.71967 3.21967C1.57902 3.36032 1.5 3.55109 1.5 3.75C1.5 3.94891 1.57902 4.13968 1.71967 4.28033C1.86032 4.42098 2.05109 4.5 2.25 4.5H8.20125C8.05246 5.68338 7.5529 6.79515 6.76688 7.69219C6.43393 7.30341 6.15052 6.87483 5.92313 6.41625C5.83101 6.24448 5.67565 6.11532 5.48994 6.05612C5.30424 5.99693 5.10279 6.01235 4.92826 6.09913C4.75373 6.18591 4.61984 6.33722 4.55495 6.52101C4.49006 6.7048 4.49927 6.90663 4.58063 7.08375C4.86772 7.66257 5.22682 8.20279 5.64937 8.69156C4.65049 9.38234 3.46448 9.75162 2.25 9.75C2.05109 9.75 1.86032 9.82902 1.71967 9.96967C1.57902 10.1103 1.5 10.3011 1.5 10.5C1.5 10.6989 1.57902 10.8897 1.71967 11.0303C1.86032 11.171 2.05109 11.25 2.25 11.25C3.87819 11.2517 5.46222 10.7206 6.76031 9.73781C7.54572 10.3382 8.44431 10.7738 9.40219 11.0184L7.57875 14.6644C7.48974 14.8424 7.47509 15.0485 7.53803 15.2373C7.60097 15.4261 7.73635 15.5822 7.91437 15.6713C8.0924 15.7603 8.2985 15.7749 8.48732 15.712C8.67615 15.649 8.83224 15.5137 8.92125 15.3356L9.83813 13.5H14.1619L15.0787 15.3356C15.1228 15.4238 15.1838 15.5024 15.2583 15.567C15.3327 15.6315 15.4192 15.6808 15.5127 15.712C15.6062 15.7431 15.7049 15.7556 15.8032 15.7486C15.9015 15.7416 15.9975 15.7153 16.0856 15.6713C16.1738 15.6272 16.2524 15.5662 16.317 15.4917C16.3815 15.4173 16.4308 15.3308 16.462 15.2373C16.4931 15.1438 16.5056 15.0451 16.4986 14.9468C16.4916 14.8485 16.4653 14.7525 16.4212 14.6644Z" fill="white"/>
</svg>
