<svg width="24" height="24" viewBox="0 0 24 24" fill="none" xmlns="http://www.w3.org/2000/svg">
<g id="ph:translate-fill">
<path id="Vector" d="M15 12.1772L16.4119 15H13.5881L14.1844 13.8094L15 12.1772ZM21 4.5V19.5C21 19.8978 20.842 20.2794 20.5607 20.5607C20.2794 20.842 19.8978 21 19.5 21H4.5C4.10218 21 3.72064 20.842 3.43934 20.5607C3.15804 20.2794 3 19.8978 3 19.5V4.5C3 4.10218 3.15804 3.72064 3.43934 3.43934C3.72064 3.15804 4.10218 3 4.5 3H19.5C19.8978 3 20.2794 3.15804 20.5607 3.43934C20.842 3.72064 21 4.10218 21 4.5ZM19.4212 17.6644L15.6713 10.1644C15.609 10.0396 15.5133 9.93458 15.3947 9.86119C15.2761 9.7878 15.1394 9.74892 15 9.74892C14.8606 9.74892 14.7239 9.7878 14.6053 9.86119C14.4867 9.93458 14.391 10.0396 14.3287 10.1644L13.0931 12.6375C12.2983 12.4819 11.5445 12.1626 10.8797 11.7C11.916 10.5269 12.5572 9.05757 12.7125 7.5H14.25C14.4489 7.5 14.6397 7.42098 14.7803 7.28033C14.921 7.13968 15 6.94891 15 6.75C15 6.55109 14.921 6.36032 14.7803 6.21967C14.6397 6.07902 14.4489 6 14.25 6H10.5V5.25C10.5 5.05109 10.421 4.86032 10.2803 4.71967C10.1397 4.57902 9.94891 4.5 9.75 4.5C9.55109 4.5 9.36032 4.57902 9.21967 4.71967C9.07902 4.86032 9 5.05109 9 5.25V6H5.25C5.05109 6 4.86032 6.07902 4.71967 6.21967C4.57902 6.36032 4.5 6.55109 4.5 6.75C4.5 6.94891 4.57902 7.13968 4.71967 7.28033C4.86032 7.42098 5.05109 7.5 5.25 7.5H11.2013C11.0525 8.68338 10.5529 9.79515 9.76688 10.6922C9.43393 10.3034 9.15052 9.87483 8.92313 9.41625C8.83101 9.24448 8.67565 9.11532 8.48994 9.05612C8.30424 8.99693 8.10279 9.01235 7.92826 9.09913C7.75373 9.18591 7.61984 9.33722 7.55495 9.52101C7.49006 9.7048 7.49927 9.90663 7.58063 10.0837C7.86772 10.6626 8.22682 11.2028 8.64937 11.6916C7.65049 12.3823 6.46448 12.7516 5.25 12.75C5.05109 12.75 4.86032 12.829 4.71967 12.9697C4.57902 13.1103 4.5 13.3011 4.5 13.5C4.5 13.6989 4.57902 13.8897 4.71967 14.0303C4.86032 14.171 5.05109 14.25 5.25 14.25C6.87819 14.2517 8.46222 13.7206 9.76031 12.7378C10.5457 13.3382 11.4443 13.7738 12.4022 14.0184L10.5787 17.6644C10.4897 17.8424 10.4751 18.0485 10.538 18.2373C10.601 18.4261 10.7363 18.5822 10.9144 18.6713C11.0924 18.7603 11.2985 18.7749 11.4873 18.712C11.6761 18.649 11.8322 18.5137 11.9213 18.3356L12.8381 16.5H17.1619L18.0787 18.3356C18.1228 18.4238 18.1838 18.5024 18.2583 18.567C18.3327 18.6315 18.4192 18.6808 18.5127 18.712C18.6062 18.7431 18.7049 18.7556 18.8032 18.7486C18.9015 18.7416 18.9975 18.7153 19.0856 18.6713C19.1738 18.6272 19.2524 18.5662 19.317 18.4917C19.3815 18.4173 19.4308 18.3308 19.462 18.2373C19.4931 18.1438 19.5056 18.0451 19.4986 17.9468C19.4916 17.8485 19.4653 17.7525 19.4212 17.6644Z" fill="#7F8C8D"/>
</g>
</svg>
